<?xml version="1.0" encoding="utf-8"?>
<!-- Generator: Adobe Illustrator 22.0.0, SVG Export Plug-In . SVG Version: 6.00 Build 0)  -->
<svg version="1.1" id="Layer_2" xmlns="http://www.w3.org/2000/svg" xmlns:xlink="http://www.w3.org/1999/xlink" x="0px" y="0px"
	 viewBox="0 0 134 38" style="enable-background:new 0 0 134 38;" xml:space="preserve">
<style type="text/css">
	.st0{fill:#FFFFFF;}
	.st1{fill:#54963D;}
	.st2{fill:url(#SVGID_1_);}
</style>
<g>
	<path class="st0" d="M51.2,19.8c0,3.7-1.6,6.4-4.4,7.1c-0.7,0.2-1.8,0.3-3.2,0.3h-5V14c0-1,0.5-1.6,1.5-1.6h4.3
		C49.1,12.4,51.2,15.1,51.2,19.8z M44.4,15h-2.8v9.6H44c3,0,4.1-1.6,4.1-4.7C48.1,16.8,47.2,15,44.4,15z"/>
	<path class="st0" d="M57.8,27.5c-3.5-0.1-5.3-2.1-5.3-6.1s1.8-5.9,5.3-5.9c3.7,0,5.4,2.3,5.2,6.8h-7.5c0.1,1.8,0.9,2.7,2.3,2.7
		c0.7,0,1.3-0.3,1.9-0.8c0.3-0.3,0.6-0.4,1-0.4h2.1C62.2,26.2,60.6,27.5,57.8,27.5z M55.6,20.2h4.4c-0.2-1.5-0.9-2.3-2.1-2.3
		S55.8,18.7,55.6,20.2z"/>
	<path class="st0" d="M74.3,15.7l-4.1,11.6h-3.1l-4.1-11.6h3.2l2.3,8.1l2-7.1c0.2-0.7,0.7-1,1.4-1H74.3z"/>
	<path class="st0" d="M80.1,27.5c-3.5-0.1-5.3-2.1-5.3-6.1s1.8-5.9,5.3-5.9c3.7,0,5.4,2.3,5.2,6.8h-7.5c0.1,1.8,0.9,2.7,2.3,2.7
		c0.7,0,1.3-0.3,1.9-0.8c0.3-0.3,0.6-0.4,1-0.4h2.1C84.6,26.2,83,27.5,80.1,27.5z M77.9,20.2h4.4c-0.2-1.5-0.9-2.3-2.1-2.3
		S78.1,18.7,77.9,20.2z"/>
	<path class="st0" d="M89.6,13.8v13.5h-2.9V12.4h1.5C89,12.4,89.6,13,89.6,13.8z"/>
	<path class="st0" d="M101.7,21.5c0,4-1.8,6-5.3,6s-5.3-2-5.3-6c0-4,1.8-6,5.3-6S101.7,17.5,101.7,21.5z M94.1,21.5
		c0,2.3,0.8,3.4,2.3,3.4c1.5,0,2.2-1.2,2.3-3.5c0-2.3-0.7-3.4-2.2-3.4C94.9,18.1,94.1,19.2,94.1,21.5z"/>
	<path class="st0" d="M106,30.3c0,1-0.5,1.4-1.4,1.4h-1.5V20.7c0.2-3.5,1.9-5.2,5.4-5.2c3.6,0,5.4,1.9,5.4,5.8c0,3.9-1.5,6-4.6,6.1
		c-1.4,0-2.5-0.6-3.3-1.8V30.3z M108.5,24.9c1.6,0,2.4-1.1,2.5-3.3c0-2.3-0.8-3.5-2.5-3.5s-2.5,1.2-2.4,3.5
		C106.1,23.8,106.9,24.9,108.5,24.9z"/>
	<path class="st0" d="M120.5,27.5c-3.5-0.1-5.3-2.1-5.3-6.1s1.8-5.9,5.3-5.9c3.7,0,5.4,2.3,5.2,6.8h-7.5c0.1,1.8,0.9,2.7,2.3,2.7
		c0.7,0,1.3-0.3,1.9-0.8c0.3-0.3,0.6-0.4,1-0.4h2.1C124.9,26.2,123.3,27.5,120.5,27.5z M118.2,20.2h4.4c-0.2-1.5-0.9-2.3-2.1-2.3
		S118.5,18.7,118.2,20.2z"/>
	<path class="st0" d="M127,21.3c0.1-3.7,2.1-5.6,6-5.6h0.4v3h-1c-1.6,0-2.4,0.9-2.4,2.5v6h-3V21.3z"/>
</g>
<g>
	<g>
		<ellipse transform="matrix(0.6165 -0.7874 0.7874 0.6165 -7.5303 22.4567)" class="st1" cx="19.3" cy="19" rx="17.6" ry="17.6"/>
		<linearGradient id="SVGID_1_" gradientUnits="userSpaceOnUse" x1="1.6445" y1="22.3261" x2="36.9282" y2="22.3261">
			<stop  offset="0" style="stop-color:#1A793E"/>
			<stop  offset="5.641955e-02" style="stop-color:#1B7B3E"/>
			<stop  offset="0.5129" style="stop-color:#218641"/>
			<stop  offset="1" style="stop-color:#238A42"/>
		</linearGradient>
		<path class="st2" d="M36.9,19c0-15-12.4-12.3-12.9-6.4c1,4.4,4.1,8.9,1,11.7C21.4,27.6,1.6,13.8,1.6,19c0,9.7,7.9,17.6,17.6,17.6
			S36.9,28.8,36.9,19z"/>
	</g>
	<g>
		<path class="st0" d="M14.1,11.3l5.6,15.6h-3.4l-1-3.2h-6l-1,3.2H4.8L10,12.3c0.2-0.7,0.7-1,1.5-1H14.1z M10.1,21.1h4.3l-2.2-6.6
			L10.1,21.1z"/>
		<path class="st0" d="M30,26.9c-1-0.1-1.5-0.6-1.5-1.5v-6.2c-0.1-1.3-0.8-1.9-2.1-1.9s-2,0.6-2.1,1.9v7.8h-3.1v-7.1
			c0-3.5,1.7-5.2,5.2-5.2s5.2,1.7,5.1,5.2v7.1H30z"/>
	</g>
</g>
</svg>
